# xmcd
#
# Track frame offsets:
#	150
#	20098
#	41307
#	58259
#	81441
#	102717
#	118741
#	139972
#	160031
#	186819
#	206532
#
# Disc length: 2924 seconds
#
# Revision: 1
# Processed by: cddbd v1.5.2PL0 Copyright (c) Steve Scherf et al.
# Submitted via: audiograbber 1.83.01
#
DISCID=9f0b6a0b
DTITLE=Chris Canas - She's Breaking Me
DYEAR=2010
DGENRE=Blues
TTITLE0=Crank Dat Blues And Drive
TTITLE1=If You Ever Want To Leave
TTITLE2=Trouble In Paradise
TTITLE3=Who The Hell Are You
TTITLE4=She's Breaking Me
TTITLE5=I'm Playing The Blues
TTITLE6=We're Gonna Work It Out
TTITLE7=She's The Only One For Me
TTITLE8=I'll Always Love You
TTITLE9=Fine As Wine
TTITLE10=Don't Let The Door Hit Ya
EXTD=
EXTT0=
EXTT1=
EXTT2=
EXTT3=
EXTT4=
EXTT5=
EXTT6=
EXTT7=
EXTT8=
EXTT9=
EXTT10=
PLAYORDER=
